<svg width="138" height="120" viewBox="0 0 138 120" fill="none" xmlns="http://www.w3.org/2000/svg">
<path d="M63.1938 114.983C58.6857 111.613 54.6454 109.931 51.0702 109.931H0V20.4274H7.6667V102.271H51.0702C56.7052 102.271 62.4117 104.697 68.3917 109.305C68.3406 109.354 68.3841 109.377 68.4939 109.384L68.3917 109.308C73.3674 104.728 78.6523 102.271 84.3332 102.271H130.333V20.4275H138V109.931H84.3331C81.0109 109.931 77.6375 111.414 74.2132 114.383L74.0419 114.534C72.3732 116.004 70.6941 117.827 68.9998 120C67.281 118.313 65.4633 116.73 63.5565 115.259L63.1938 114.983ZM63.8889 4.1515V95.9117C60.3494 93.2207 57.1804 91.8779 54.3872 91.8779H15.3333V0.112627C37.0862 0.153408 50.3445 0.117666 55.0977 0.00282209C58.2104 -0.0712406 61.1416 1.31251 63.8889 4.14892V4.1515ZM71.5555 4.94299C74.3308 1.64697 77.0858 0.00282209 79.8252 0.00282209C83.6944 0.00282209 97.3742 0.0385643 120.862 0.112627V91.8726H79.8252C77.1113 91.8726 74.3564 93.1645 71.5555 95.7533V4.94041V4.94299ZM84.3332 25.5336V33.1928H107.333V25.5335H84.3332V25.5336ZM28.111 25.5336V33.1928H51.111V25.5335H28.111V25.5336ZM84.3332 45.9582V53.6174H107.333V45.9582H84.3332ZM84.3332 66.3829V74.042H102.222V66.3829H84.3332ZM28.111 45.9582V53.6174H51.111V45.9582H28.111ZM28.111 66.3829V74.042H46V66.3829H28.111Z" fill="#30F8FF"/>
</svg>
