<svg width="50" height="54" viewBox="0 0 50 54" fill="none" xmlns="http://www.w3.org/2000/svg">
<g filter="url(#filter0_i_165_1054)">
<path d="M23.7722 53.6343V43.1103C23.7722 36.5503 21.9333 31.3679 13.5347 27.2645C7.93595 24.5283 3.51623 21.3472 0.274902 17.7207V35.4885C0.274902 42.6215 3.33147 48.4052 12.0237 50.7698C17.8185 52.3463 21.7346 53.3012 23.7722 53.634V53.6343Z" fill="url(#paint0_linear_165_1054)"/>
</g>
<path d="M13.3151 27.7137L13.3152 27.7138C17.4522 29.735 19.9228 31.9965 21.3693 34.5152C22.8178 37.0373 23.2722 39.8739 23.2722 43.1103V53.0383C21.1374 52.639 17.4376 51.7245 12.1549 50.2874C7.89774 49.1292 5.06958 47.1493 3.29878 44.6298C1.52424 42.105 0.774902 38.9861 0.774902 35.4885V18.991C3.97245 22.2879 8.15723 25.193 13.3151 27.7137Z" stroke="#30F8FF" stroke-opacity="0.5"/>
<g filter="url(#filter1_i_165_1054)">
<path d="M23.7722 0.441406V10.9655C23.7722 17.5255 21.9333 22.7078 13.5347 26.8112C7.93595 29.5474 3.51623 32.7285 0.274902 36.3547V18.5869C0.274902 11.454 3.33147 5.67027 12.0237 3.30563C17.8185 1.7292 21.7346 0.774266 23.7722 0.441406Z" fill="url(#paint1_linear_165_1054)"/>
</g>
<path d="M13.3151 26.362C8.15722 28.8828 3.97245 31.7878 0.774902 35.0845V18.5869C0.774902 15.0893 1.52424 11.9705 3.29878 9.44568C5.06958 6.92619 7.89774 4.94623 12.1549 3.78809C17.4376 2.351 21.1374 1.43649 23.2722 1.03713V10.9655C23.2722 14.2019 22.8178 17.0384 21.3693 19.5606C19.9228 22.0792 17.4522 24.3407 13.3152 26.362L13.3151 26.362Z" stroke="#30F8FF" stroke-opacity="0.5"/>
<g filter="url(#filter2_i_165_1054)">
<path d="M26.2095 0.441406V10.9655C26.2095 17.5255 28.0484 22.7078 36.447 26.8112C42.046 29.5471 46.466 32.7282 49.707 36.3547V18.5869C49.707 11.454 46.6505 5.67027 37.958 3.30563C32.1634 1.7292 28.2471 0.774266 26.2095 0.441406Z" fill="url(#paint2_linear_165_1054)"/>
</g>
<path d="M36.6665 26.362L36.6665 26.362C32.5295 24.3407 30.0588 22.0792 28.6123 19.5606C27.1639 17.0384 26.7095 14.2019 26.7095 10.9655V1.03713C28.8443 1.43649 32.5443 2.351 37.8267 3.78809L37.8267 3.7881C42.0841 4.94623 44.9123 6.9262 46.6831 9.44568C48.4577 11.9705 49.207 15.0893 49.207 18.5869V35.0844C46.0097 31.7875 41.8246 28.8825 36.6665 26.362Z" stroke="#30F8FF" stroke-opacity="0.5"/>
<g filter="url(#filter3_i_165_1054)">
<path d="M26.2095 53.634V43.11C26.2095 36.55 28.0484 31.3677 36.447 27.2642C42.046 24.5283 46.466 21.3472 49.707 17.7207V35.4885C49.707 42.6215 46.6505 48.4052 37.958 50.7698C32.1634 52.3463 28.2471 53.3012 26.2095 53.634Z" fill="url(#paint3_linear_165_1054)"/>
</g>
<path d="M26.7095 53.0383V43.11C26.7095 39.8736 27.1639 37.037 28.6123 34.5149C30.0588 31.9962 32.5295 29.7348 36.6665 27.7135L36.6665 27.7135C41.8246 25.193 46.0097 22.288 49.207 18.991V35.4885C49.207 38.9861 48.4577 42.105 46.6831 44.6298C44.9123 47.1493 42.0841 49.1292 37.8267 50.2874L37.958 50.7698L37.8267 50.2874C32.5443 51.7245 28.8443 52.639 26.7095 53.0383Z" stroke="#30F8FF" stroke-opacity="0.5"/>
<defs>
<filter id="filter0_i_165_1054" x="0.274902" y="17.7207" width="23.4971" height="35.9136" filterUnits="userSpaceOnUse" color-interpolation-filters="sRGB">
<feFlood flood-opacity="0" result="BackgroundImageFix"/>
<feBlend mode="normal" in="SourceGraphic" in2="BackgroundImageFix" result="shape"/>
<feColorMatrix in="SourceAlpha" type="matrix" values="0 0 0 0 0 0 0 0 0 0 0 0 0 0 0 0 0 0 127 0" result="hardAlpha"/>
<feOffset/>
<feGaussianBlur stdDeviation="10"/>
<feComposite in2="hardAlpha" operator="arithmetic" k2="-1" k3="1"/>
<feColorMatrix type="matrix" values="0 0 0 0 0.1875 0 0 0 0 0.972917 0 0 0 0 1 0 0 0 0.2 0"/>
<feBlend mode="normal" in2="shape" result="effect1_innerShadow_165_1054"/>
</filter>
<filter id="filter1_i_165_1054" x="0.274902" y="0.441406" width="23.4971" height="35.9133" filterUnits="userSpaceOnUse" color-interpolation-filters="sRGB">
<feFlood flood-opacity="0" result="BackgroundImageFix"/>
<feBlend mode="normal" in="SourceGraphic" in2="BackgroundImageFix" result="shape"/>
<feColorMatrix in="SourceAlpha" type="matrix" values="0 0 0 0 0 0 0 0 0 0 0 0 0 0 0 0 0 0 127 0" result="hardAlpha"/>
<feOffset/>
<feGaussianBlur stdDeviation="10"/>
<feComposite in2="hardAlpha" operator="arithmetic" k2="-1" k3="1"/>
<feColorMatrix type="matrix" values="0 0 0 0 0.1875 0 0 0 0 0.972917 0 0 0 0 1 0 0 0 0.2 0"/>
<feBlend mode="normal" in2="shape" result="effect1_innerShadow_165_1054"/>
</filter>
<filter id="filter2_i_165_1054" x="26.2095" y="0.441406" width="23.4976" height="35.9133" filterUnits="userSpaceOnUse" color-interpolation-filters="sRGB">
<feFlood flood-opacity="0" result="BackgroundImageFix"/>
<feBlend mode="normal" in="SourceGraphic" in2="BackgroundImageFix" result="shape"/>
<feColorMatrix in="SourceAlpha" type="matrix" values="0 0 0 0 0 0 0 0 0 0 0 0 0 0 0 0 0 0 127 0" result="hardAlpha"/>
<feOffset/>
<feGaussianBlur stdDeviation="10"/>
<feComposite in2="hardAlpha" operator="arithmetic" k2="-1" k3="1"/>
<feColorMatrix type="matrix" values="0 0 0 0 0.1875 0 0 0 0 0.972917 0 0 0 0 1 0 0 0 0.2 0"/>
<feBlend mode="normal" in2="shape" result="effect1_innerShadow_165_1054"/>
</filter>
<filter id="filter3_i_165_1054" x="26.2095" y="17.7207" width="23.4976" height="35.9133" filterUnits="userSpaceOnUse" color-interpolation-filters="sRGB">
<feFlood flood-opacity="0" result="BackgroundImageFix"/>
<feBlend mode="normal" in="SourceGraphic" in2="BackgroundImageFix" result="shape"/>
<feColorMatrix in="SourceAlpha" type="matrix" values="0 0 0 0 0 0 0 0 0 0 0 0 0 0 0 0 0 0 127 0" result="hardAlpha"/>
<feOffset/>
<feGaussianBlur stdDeviation="10"/>
<feComposite in2="hardAlpha" operator="arithmetic" k2="-1" k3="1"/>
<feColorMatrix type="matrix" values="0 0 0 0 0.1875 0 0 0 0 0.972917 0 0 0 0 1 0 0 0 0.2 0"/>
<feBlend mode="normal" in2="shape" result="effect1_innerShadow_165_1054"/>
</filter>
<linearGradient id="paint0_linear_165_1054" x1="3.44703" y1="6.55836" x2="30.7733" y2="11.3617" gradientUnits="userSpaceOnUse">
<stop stop-color="#5E00F8"/>
<stop offset="0.51" stop-color="#5D5EFE"/>
<stop offset="1" stop-color="#30F8FF"/>
</linearGradient>
<linearGradient id="paint1_linear_165_1054" x1="3.44703" y1="-10.7208" x2="30.7732" y2="-5.91746" gradientUnits="userSpaceOnUse">
<stop stop-color="#5E00F8"/>
<stop offset="0.51" stop-color="#5D5EFE"/>
<stop offset="1" stop-color="#30F8FF"/>
</linearGradient>
<linearGradient id="paint2_linear_165_1054" x1="29.3816" y1="-10.7208" x2="56.7082" y2="-5.91734" gradientUnits="userSpaceOnUse">
<stop stop-color="#5E00F8"/>
<stop offset="0.51" stop-color="#5D5EFE"/>
<stop offset="1" stop-color="#30F8FF"/>
</linearGradient>
<linearGradient id="paint3_linear_165_1054" x1="29.3816" y1="6.55845" x2="56.7082" y2="11.362" gradientUnits="userSpaceOnUse">
<stop stop-color="#5E00F8"/>
<stop offset="0.51" stop-color="#5D5EFE"/>
<stop offset="1" stop-color="#30F8FF"/>
</linearGradient>
</defs>
</svg>
