<svg width="16" height="17" viewBox="0 0 16 17" fill="none" xmlns="http://www.w3.org/2000/svg">
<path d="M8.2102 13.2714C8.8776 13.2714 9.52523 13.1406 10.1333 12.8837C10.7217 12.6344 11.2507 12.2786 11.7038 11.8241C12.1583 11.3695 12.5141 10.8404 12.7634 10.2536C13.0203 9.64551 13.1511 8.9994 13.1511 8.33048C13.1511 7.66156 13.0203 7.01545 12.7634 6.40734C12.5141 5.81899 12.1583 5.28994 11.7038 4.8369C11.2492 4.38234 10.7202 4.0266 10.1333 3.77727C9.52523 3.52035 8.87912 3.3896 8.2102 3.3896C8.01408 3.3896 7.81949 3.40024 7.62793 3.42305C8.60091 4.85058 9.14212 6.55632 9.14212 8.33048C9.14212 10.1046 8.60091 11.8089 7.62793 13.2379C7.81949 13.2607 8.01408 13.2714 8.2102 13.2714ZM8.2102 15.1565C6.76442 15.1565 5.42354 14.7065 4.31982 13.9403C6.09398 12.7073 7.25547 10.655 7.25547 8.33048C7.25547 6.00599 6.09398 3.95362 4.31982 2.72068C5.42354 1.95447 6.76442 1.50447 8.2102 1.50447C11.9805 1.50447 15.0362 4.56021 15.0362 8.33048C15.0362 12.1008 11.9789 15.1565 8.2102 15.1565Z" fill="#00072D"/>
</svg>
