<svg width="161" height="120" viewBox="0 0 161 120" fill="none" xmlns="http://www.w3.org/2000/svg">
<g filter="url(#filter0_i_87_1795)">
<path d="M128.8 69.2958C128.376 69.2958 124.139 66.7606 127.105 60L127.953 59.1549C133.461 54.507 136.85 44.7887 136.85 31.2676C136.85 14.7887 129.647 6.76056 115.666 6.76056C113.547 6.76056 112.276 6.76056 110.582 7.1831C115.242 12.6761 116.513 21.5493 116.513 31.6901C116.513 49.4366 111.853 62.9578 105.074 69.7183C105.074 69.7183 101.261 73.5211 105.497 75.6338L111.005 78.169C121.597 83.2394 133.461 91.2676 142.358 98.8733H158.458C159.729 98.8733 161 97.6056 161 96.338V92.1127C161 85.3521 141.511 73.9437 128.8 69.2958ZM97.8711 81.5493C97.0237 81.1268 91.9395 78.169 95.3289 68.8732C102.955 63.3803 108.887 49.4366 108.887 31.6901C108.887 10.5634 99.1421 0 80.9237 0C62.2816 0 52.9605 10.5634 52.9605 31.6901C52.9605 49.0141 58.4684 63.8028 66.5184 69.2958C68.6368 78.169 64.8237 81.1268 63.5526 81.5493C47.4526 87.8873 22.4553 102.676 22.4553 111.127V116.197C22.4553 117.887 24.15 120 26.2684 120H135.579C137.274 120 139.392 118.31 139.392 116.62V111.127C138.968 102.676 114.395 87.4648 97.8711 81.5493ZM55.9263 75.6338C60.1632 73.5211 56.35 69.7183 56.35 69.7183C49.1474 62.9578 44.9105 49.4366 44.9105 31.6901C44.9105 21.5493 46.6053 12.6761 50.8421 7.1831C49.1474 6.76056 47.8763 6.76056 45.7579 6.76056C31.7763 6.76056 24.5737 14.7887 24.5737 31.2676C24.5737 44.7887 28.3868 54.507 33.4711 59.1549L33.8947 60C36.8605 66.7606 32.6237 69.2958 32.2 69.2958C19.4895 73.9437 0 85.3521 0 92.1127V96.338C0 98.0282 1.27105 98.8733 2.5421 98.8733H18.6421C27.5395 91.2676 39.4026 83.2394 49.9947 78.169L55.9263 75.6338Z" fill="white"/>
</g>
<defs>
<filter id="filter0_i_87_1795" x="0" y="0" width="161" height="120" filterUnits="userSpaceOnUse" color-interpolation-filters="sRGB">
<feFlood flood-opacity="0" result="BackgroundImageFix"/>
<feBlend mode="normal" in="SourceGraphic" in2="BackgroundImageFix" result="shape"/>
<feColorMatrix in="SourceAlpha" type="matrix" values="0 0 0 0 0 0 0 0 0 0 0 0 0 0 0 0 0 0 127 0" result="hardAlpha"/>
<feOffset/>
<feGaussianBlur stdDeviation="10"/>
<feComposite in2="hardAlpha" operator="arithmetic" k2="-1" k3="1"/>
<feColorMatrix type="matrix" values="0 0 0 0 0.1875 0 0 0 0 0.972917 0 0 0 0 1 0 0 0 0.2 0"/>
<feBlend mode="normal" in2="shape" result="effect1_innerShadow_87_1795"/>
</filter>
</defs>
</svg>
