<svg width="56" height="56" viewBox="0 0 56 56" fill="none" xmlns="http://www.w3.org/2000/svg">
<path d="M50.482 29.985C49.3828 29.7826 48.3328 30.5209 48.1359 31.6201C46.3969 41.3764 37.9258 48.4529 28 48.4529C16.7234 48.4529 7.54688 39.2764 7.54688 27.9998C7.54688 17.9592 14.7219 9.47717 24.6039 7.82561C25.7031 7.63967 26.4523 6.60061 26.2664 5.49592C26.0805 4.39123 25.0414 3.65842 23.9367 3.83342C12.0914 5.81311 3.5 15.9795 3.5 27.9998C3.5 41.5076 14.4922 52.4998 28 52.4998C39.8891 52.4998 50.0336 44.0178 52.1172 32.3311C52.3141 31.2319 51.5812 30.1819 50.482 29.985Z" fill="white"/>
<path d="M52.5002 6.29453V5.52344C52.5002 4.40781 51.5924 3.5 50.4768 3.5H36.9909C35.8752 3.5 34.9674 4.40781 34.9674 5.52344C34.9674 6.63906 35.8752 7.54688 36.9909 7.54688H46.2823L26.5838 26.8023C25.7854 27.5844 25.769 28.8641 26.551 29.6625C26.9448 30.0672 27.4698 30.2695 28.0002 30.2695C28.5088 30.2695 29.0229 30.0781 29.4166 29.6953L48.4534 11.0797V19.0094C48.4534 20.125 49.3612 21.0328 50.4768 21.0328C51.5924 21.0328 52.5002 20.125 52.5002 19.0094V6.29453Z" fill="white"/>
</svg>
