<svg width="17" height="17" viewBox="0 0 17 17" fill="none" xmlns="http://www.w3.org/2000/svg">
<g clip-path="url(#clip0_173_4475)">
<path d="M8.64902 4.95896C6.79325 4.95896 5.28385 6.46836 5.28385 8.32413C5.28385 10.1799 6.79325 11.6893 8.64902 11.6893C10.5048 11.6893 12.0142 10.1799 12.0142 8.32413C12.0142 6.46836 10.5041 4.95896 8.64902 4.95896ZM8.64902 10.392C8.10074 10.3915 7.57507 10.1735 7.18738 9.78577C6.79969 9.39808 6.58165 8.8724 6.58114 8.32413C6.58165 7.77585 6.79969 7.25018 7.18738 6.86248C7.57507 6.47479 8.10074 6.25676 8.64902 6.25625C9.1973 6.25676 9.72297 6.47479 10.1107 6.86248C10.4984 7.25018 10.7164 7.77585 10.7169 8.32413C10.7164 8.8724 10.4984 9.39808 10.1107 9.78577C9.72297 10.1735 9.1973 10.3915 8.64902 10.392ZM9.29766 13.4971C9.29544 13.3272 9.22587 13.1652 9.10424 13.0466C8.98261 12.928 8.81888 12.8626 8.64902 12.8646C8.29097 12.8646 8.00037 13.1481 8.00037 13.4971V15.4754C8.0026 15.6453 8.07217 15.8073 8.19379 15.9259C8.31542 16.0445 8.47916 16.1099 8.64902 16.1079C9.00707 16.1079 9.29766 15.8244 9.29766 15.4754V13.4971ZM9.29766 1.17282C9.29544 1.00296 9.22587 0.840936 9.10424 0.722348C8.98261 0.60376 8.81888 0.538314 8.64902 0.540392C8.29032 0.540392 8.00037 0.824498 8.00037 1.17282V3.15183C8.00147 3.23591 8.01912 3.31895 8.05232 3.3962C8.08551 3.47345 8.1336 3.54341 8.19383 3.60208C8.25407 3.66075 8.32527 3.70697 8.40337 3.73812C8.48147 3.76927 8.56494 3.78473 8.64902 3.78361C9.00707 3.78361 9.29766 3.5008 9.29766 3.15119V1.17282ZM3.47608 8.97277C3.82505 8.97277 4.10851 8.68218 4.10851 8.32413C4.10851 7.96543 3.82505 7.67548 3.47608 7.67548H1.49771C1.32785 7.6777 1.16583 7.74728 1.04724 7.8689C0.928651 7.99053 0.863205 8.15427 0.865282 8.32413C0.865282 8.68218 1.14874 8.97277 1.49771 8.97277H3.47608ZM15.8003 8.97277C16.1493 8.97277 16.4328 8.68218 16.4328 8.32413C16.4328 7.96543 16.1486 7.67548 15.8003 7.67548H13.8213C13.7372 7.67658 13.6542 7.69423 13.5769 7.72743C13.4997 7.76062 13.4297 7.80871 13.3711 7.86894C13.3124 7.92918 13.2662 8.00038 13.235 8.07848C13.2039 8.15658 13.1884 8.24005 13.1895 8.32413C13.1895 8.68218 13.4723 8.97277 13.822 8.97277H15.8003ZM4.53272 5.12501C4.59289 5.18379 4.66407 5.23013 4.74218 5.26136C4.82028 5.2926 4.90378 5.30812 4.9879 5.30703C5.07201 5.30595 5.15508 5.28828 5.23236 5.25504C5.30963 5.22181 5.37959 5.17365 5.43823 5.11334C5.49847 5.05466 5.54655 4.98468 5.57974 4.90741C5.61293 4.83014 5.63057 4.74709 5.63166 4.663C5.63274 4.57891 5.61725 4.49543 5.58606 4.41733C5.55488 4.33923 5.50861 4.26804 5.4499 4.20783L4.05078 2.80805C3.92891 2.68982 3.76511 2.62478 3.59534 2.62721C3.42556 2.62964 3.26369 2.69935 3.14527 2.82103C3.02377 2.93962 2.9543 3.10159 2.95211 3.27136C2.94992 3.44114 3.01519 3.60484 3.13359 3.72653L4.53272 5.12501ZM13.2473 13.8396C13.369 13.958 13.5327 14.0232 13.7024 14.021C13.8722 14.0188 14.0342 13.9494 14.1528 13.8279C14.2743 13.7093 14.3437 13.5473 14.3459 13.3775C14.3481 13.2078 14.2828 13.0441 14.1644 12.9224L12.7653 11.5232C12.7051 11.4645 12.634 11.4181 12.5559 11.3869C12.4778 11.3557 12.3943 11.3401 12.3101 11.3412C12.226 11.3423 12.143 11.36 12.0657 11.3932C11.9884 11.4264 11.9184 11.4746 11.8598 11.5349C11.7995 11.5936 11.7514 11.6635 11.7181 11.7407C11.6849 11.818 11.6672 11.901 11.6661 11.9851C11.6649 12.0692 11.6803 12.1527 11.7115 12.2308C11.7426 12.3089 11.7888 12.3802 11.8475 12.4404L13.2473 13.8396ZM4.53272 11.5239C4.65444 11.4054 4.8182 11.34 4.98808 11.342C5.15796 11.3441 5.32008 11.4135 5.43888 11.5349C5.49911 11.5936 5.5472 11.6636 5.58039 11.7408C5.61358 11.8181 5.63122 11.9012 5.63231 11.9853C5.63339 12.0693 5.6179 12.1528 5.58671 12.2309C5.55552 12.309 5.50926 12.3802 5.45055 12.4404L4.05078 13.8408C3.92891 13.9591 3.76511 14.0241 3.59534 14.0217C3.42556 14.0193 3.26369 13.9496 3.14527 13.8279C3.08503 13.7692 3.03694 13.6992 3.00375 13.622C2.97056 13.5447 2.95292 13.4616 2.95184 13.3775C2.95075 13.2935 2.96625 13.21 2.99743 13.1319C3.02862 13.0538 3.07489 12.9826 3.13359 12.9224L4.53272 11.5239ZM13.2473 2.8087C13.3075 2.75004 13.3787 2.70382 13.4569 2.67269C13.535 2.64156 13.6185 2.62613 13.7026 2.62727C13.7867 2.62841 13.8697 2.64611 13.9469 2.67936C14.0242 2.71261 14.0941 2.76074 14.1528 2.82103C14.2743 2.93962 14.3437 3.10159 14.3459 3.27136C14.3481 3.44114 14.2828 3.60484 14.1644 3.72653L12.7653 5.12566C12.7051 5.18444 12.634 5.23078 12.5559 5.26201C12.4778 5.29325 12.3943 5.30877 12.3101 5.30768C12.226 5.3066 12.143 5.28893 12.0657 5.25569C11.9884 5.22246 11.9184 5.1743 11.8598 5.11398C11.7995 5.05535 11.7514 4.98541 11.7181 4.90816C11.6849 4.83091 11.6672 4.74787 11.6661 4.66378C11.6649 4.57969 11.6803 4.4962 11.7115 4.41808C11.7426 4.33996 11.7888 4.26873 11.8475 4.20848L13.2473 2.8087Z" fill="black"/>
</g>
<defs>
<clipPath id="clip0_173_4475">
<rect width="15.5676" height="15.5676" fill="white" transform="matrix(1 0 0 -1 0.864746 16.1082)"/>
</clipPath>
</defs>
</svg>
