<svg width="54" height="66" viewBox="0 0 54 66" fill="none" xmlns="http://www.w3.org/2000/svg">
<g filter="url(#filter0_i_165_1075)">
<path d="M47.9262 28.9954C51.181 28.9954 53.818 26.2506 53.818 22.864C53.818 19.4774 51.1794 16.7326 47.9262 16.7326C44.673 16.7326 42.0344 19.4774 42.0344 22.864C42.0344 23.2908 42.0766 23.7077 42.158 24.1102L38.3554 25.9835C36.8205 23.8365 34.3722 22.4406 31.6051 22.4406C31.5223 22.4406 31.4425 22.4503 31.3612 22.4536L29.9144 18.0229C32.7254 16.3694 34.6275 13.2353 34.6275 9.63373C34.6261 4.31356 30.4801 0 25.3653 0C20.2522 0 16.1065 4.31356 16.1065 9.63528C16.1065 14.9571 20.2524 19.2706 25.3653 19.2706C25.6092 19.2706 25.8497 19.2509 26.0887 19.2331L27.5015 23.5562C24.9279 25.0549 23.1849 27.9154 23.1849 31.2027C23.1849 31.9374 23.2809 32.6475 23.4451 33.33L19.4034 35.3206C17.5093 32.4292 14.3212 30.5299 10.7038 30.5299C4.89327 30.5299 0.181641 35.4316 0.181641 41.4781C0.181641 47.5245 4.8932 52.4262 10.7038 52.4262C16.5144 52.4262 21.226 47.5245 21.226 41.4781C21.226 40.7907 21.1577 40.1213 21.0406 39.4679L25.5294 37.2573C27.061 38.9205 29.2134 39.9614 31.6017 39.9614C32.0194 39.9614 32.426 39.9191 32.8259 39.8588L35.7507 48.8133C33.2258 50.3249 31.5219 53.1544 31.5219 56.4026C31.5219 61.2407 35.2905 65.1615 39.9387 65.1615C44.5868 65.1615 48.3554 61.2405 48.3554 56.4026C48.3554 51.5647 44.5869 47.6437 39.9387 47.6437C39.82 47.6437 39.7062 47.6567 39.5892 47.6615L36.5278 38.2918C38.638 36.7003 40.0167 34.1216 40.0167 31.2025C40.0167 30.8457 39.9906 30.4971 39.95 30.1519L44.551 27.886C45.5118 28.5799 46.6695 28.9954 47.9262 28.9954Z" fill="url(#paint0_linear_165_1075)"/>
</g>
<path d="M42.7243 24.3886L42.3789 24.5588L38.5763 26.4321L38.1955 26.6197L37.9486 26.2743C36.4998 24.2476 34.1978 22.9406 31.6051 22.9406C31.5821 22.9406 31.5559 22.942 31.5177 22.9446C31.5115 22.9451 31.5047 22.9456 31.4974 22.9461C31.465 22.9485 31.4226 22.9516 31.3815 22.9532L31.0034 22.9685L30.8859 22.6088L29.4391 18.1781L29.3142 17.7958L29.6609 17.5919C32.3202 16.0277 34.1275 13.057 34.1275 9.63387L42.7243 24.3886ZM42.7243 24.3886L42.6481 24.0112M42.7243 24.3886L42.6481 24.0112M42.6481 24.0112C42.5734 23.6415 42.5344 23.2577 42.5344 22.864C42.5344 19.7346 44.9677 17.2326 47.9262 17.2326C50.8847 17.2326 53.318 19.7346 53.318 22.864C53.318 25.9935 50.8863 28.4954 47.9262 28.4954C46.7827 28.4954 45.7262 28.1179 44.8438 27.4807L44.5999 27.3046L44.3301 27.4374L39.7291 29.7033L39.4122 29.8594L39.4534 30.2103C39.4924 30.5416 39.5167 30.87 39.5167 31.2025C39.5167 33.9617 38.2141 36.3938 36.2268 37.8926L35.9416 38.1076L36.0526 38.4471L39.1139 47.8168L39.2314 48.1765L39.6096 48.1611C39.6896 48.1578 39.741 48.1539 39.7842 48.1506C39.8357 48.1467 39.8756 48.1437 39.9387 48.1437C44.2922 48.1437 47.8554 51.8219 47.8554 56.4026C47.8554 60.9833 44.2921 64.6615 39.9387 64.6615C35.5852 64.6615 32.0219 60.9835 32.0219 56.4026C32.0219 53.3317 33.6322 50.6644 36.0075 49.2423L36.3498 49.0373L36.226 48.658L33.3012 39.7036L33.1698 39.3014L32.7514 39.3644C32.3661 39.4225 31.9861 39.4614 31.6017 39.4614C29.3631 39.4614 27.3411 38.4866 25.8973 36.9186L25.644 36.6435L25.3085 36.8087L20.8197 39.0193L20.482 39.1856L20.5484 39.5561C20.661 40.1842 20.726 40.8239 20.726 41.4781C20.726 47.2673 16.2197 51.9262 10.7038 51.9262C5.18784 51.9262 0.681641 47.2673 0.681641 41.4781C0.681641 35.6889 5.1879 31.0299 10.7038 31.0299C14.1397 31.0299 17.1762 32.8332 18.9852 35.5946L19.2275 35.9646L19.6243 35.7692L23.666 33.7786L24.0248 33.6019L23.9313 33.2131C23.7751 32.5643 23.6849 31.8935 23.6849 31.2027C23.6849 28.0944 25.3323 25.398 27.7531 23.9883L28.1022 23.785L27.9767 23.4009L26.564 19.0778L26.4423 18.7052M42.6481 24.0112L26.4423 18.7052M26.4423 18.7052L26.0514 18.7345M26.4423 18.7052L26.0514 18.7345M26.0514 18.7345C26.0344 18.7357 26.0174 18.737 26.0006 18.7383C25.7755 18.7552 25.5711 18.7706 25.3653 18.7706C20.5471 18.7706 16.6065 14.6999 16.6065 9.63528C16.6065 4.57075 20.5469 0.5 25.3653 0.5C30.1855 0.5 34.1261 4.57082 34.1275 9.63373L26.0514 18.7345Z" stroke="url(#paint1_radial_165_1075)" stroke-opacity="0.5"/>
<defs>
<filter id="filter0_i_165_1075" x="0.181641" y="0" width="53.6362" height="65.1616" filterUnits="userSpaceOnUse" color-interpolation-filters="sRGB">
<feFlood flood-opacity="0" result="BackgroundImageFix"/>
<feBlend mode="normal" in="SourceGraphic" in2="BackgroundImageFix" result="shape"/>
<feColorMatrix in="SourceAlpha" type="matrix" values="0 0 0 0 0 0 0 0 0 0 0 0 0 0 0 0 0 0 127 0" result="hardAlpha"/>
<feOffset/>
<feGaussianBlur stdDeviation="10"/>
<feComposite in2="hardAlpha" operator="arithmetic" k2="-1" k3="1"/>
<feColorMatrix type="matrix" values="0 0 0 0 0.1875 0 0 0 0 0.972917 0 0 0 0 1 0 0 0 0.2 0"/>
<feBlend mode="normal" in2="shape" result="effect1_innerShadow_165_1075"/>
</filter>
<linearGradient id="paint0_linear_165_1075" x1="7.42255" y1="-20.2529" x2="68.7283" y2="-6.69552" gradientUnits="userSpaceOnUse">
<stop stop-color="#5E00F8"/>
<stop offset="0.51" stop-color="#5D5EFE"/>
<stop offset="1" stop-color="#30F8FF"/>
</linearGradient>
<radialGradient id="paint1_radial_165_1075" cx="0" cy="0" r="1" gradientUnits="userSpaceOnUse" gradientTransform="translate(27.0531 32.5808) rotate(90) scale(40.545 16.543)">
<stop stop-color="#30F8FF"/>
<stop offset="1" stop-color="#30F8FF" stop-opacity="0.3"/>
</radialGradient>
</defs>
</svg>
