<svg width="122" height="122" viewBox="0 0 122 122" fill="none" xmlns="http://www.w3.org/2000/svg">
<path d="M121.306 67.6517C121.336 67.3567 121.304 67.0587 121.21 66.7773C121.117 66.4958 120.966 66.2372 120.766 66.0184C120.566 65.7995 120.322 65.6254 120.05 65.5073C119.778 65.3893 119.484 65.33 119.187 65.3333H99.891C99.4718 65.3333 99.0616 65.4548 98.7101 65.6833C98.3586 65.9117 98.0809 66.2372 97.9107 66.6203L82.2933 101.764C81.9388 102.563 81.3507 103.236 80.6065 103.695C79.8622 104.154 78.9965 104.377 78.1232 104.335C77.2499 104.292 76.4098 103.987 75.7132 103.459C75.0166 102.93 74.4962 102.203 74.2203 101.374L57.5197 51.2587C57.3847 50.8515 57.1319 50.4935 56.7933 50.2301C56.4548 49.9667 56.0456 49.8097 55.6177 49.7791C55.1898 49.7484 54.7624 49.8455 54.3898 50.058C54.0171 50.2705 53.7159 50.5888 53.5243 50.9727L38.8777 80.2703C38.5476 80.9316 38.0539 81.4974 37.4434 81.9141C36.833 82.3307 36.1262 82.5843 35.3901 82.6507C34.654 82.7172 33.9132 82.5943 33.2381 82.2937C32.5629 81.9931 31.9758 81.5248 31.5327 80.9333L20.4827 66.2C20.2808 65.9309 20.0191 65.7125 19.7183 65.5621C19.4174 65.4117 19.0857 65.3333 18.7493 65.3333H2.81133C1.55466 65.3333 0.557998 66.4037 0.692331 67.6517C4.00733 98.0283 29.743 121.667 60.9993 121.667C92.2557 121.667 117.991 98.0283 121.306 67.6517Z" fill="#30F8FF"/>
<path d="M121.307 54.3483C121.337 54.6433 121.304 54.9413 121.211 55.2227C121.118 55.5042 120.966 55.7628 120.766 55.9817C120.566 56.2005 120.322 56.3746 120.05 56.4927C119.778 56.6107 119.484 56.67 119.188 56.6667H95.6665C94.8281 56.6666 94.0077 56.9097 93.3047 57.3666C92.6016 57.8235 92.0463 58.4745 91.7059 59.2407L81.1759 82.9267C80.9975 83.3241 80.7035 83.6586 80.3322 83.8865C79.9609 84.1143 79.5295 84.2249 79.0944 84.2038C78.6592 84.1828 78.2405 84.0311 77.8929 83.7684C77.5454 83.5058 77.285 83.1445 77.1459 82.7317L60.7789 33.6307C60.5078 32.8177 60.0017 32.1034 59.3247 31.5781C58.6477 31.0527 57.8301 30.7399 56.9753 30.6791C56.1205 30.6183 55.2669 30.8124 54.5224 31.2367C53.7779 31.661 53.1759 32.2966 52.7925 33.063L35.8232 66.9887C35.6578 67.3187 35.4108 67.601 35.1057 67.8088C34.8006 68.0166 34.4475 68.143 34.0798 68.1759C33.7121 68.2089 33.3421 68.1474 33.0049 67.9973C32.6677 67.8471 32.3744 67.6133 32.1529 67.318L25.4665 58.4C25.0629 57.8618 24.5395 57.425 23.9378 57.1242C23.3361 56.8233 22.6726 56.6667 21.9999 56.6667H2.81187C2.51541 56.67 2.22158 56.6107 1.94961 56.4927C1.67764 56.3746 1.43366 56.2005 1.23363 55.9817C1.03361 55.7628 0.882043 55.5042 0.788857 55.2227C0.69567 54.9413 0.662963 54.6433 0.692874 54.3483C4.00787 23.9717 29.7435 0.333344 60.9999 0.333344C92.2562 0.333344 117.992 23.9717 121.307 54.3483Z" fill="#30F8FF"/>
</svg>
