<svg width="122" height="122" viewBox="0 0 122 122" fill="none" xmlns="http://www.w3.org/2000/svg">
<g filter="url(#filter0_i_87_1787)">
<path d="M121.306 67.6517C121.336 67.3567 121.303 67.0587 121.21 66.7773C121.117 66.4958 120.965 66.2372 120.765 66.0184C120.565 65.7995 120.321 65.6254 120.049 65.5073C119.777 65.3893 119.483 65.33 119.187 65.3333H99.8905C99.4713 65.3333 99.0611 65.4548 98.7096 65.6833C98.3581 65.9117 98.0804 66.2372 97.9102 66.6203L82.2929 101.764C81.9383 102.563 81.3502 103.236 80.606 103.695C79.8617 104.154 78.9961 104.377 78.1227 104.335C77.2494 104.292 76.4093 103.987 75.7127 103.459C75.0161 102.93 74.4957 102.203 74.2198 101.374L57.5192 51.2587C57.3842 50.8515 57.1315 50.4935 56.7929 50.2301C56.4543 49.9667 56.0451 49.8097 55.6172 49.7791C55.1893 49.7484 54.7619 49.8455 54.3893 50.058C54.0166 50.2705 53.7154 50.5888 53.5238 50.9727L38.8772 80.2703C38.5471 80.9316 38.0534 81.4974 37.443 81.9141C36.8325 82.3307 36.1257 82.5843 35.3896 82.6507C34.6536 82.7172 33.9127 82.5943 33.2376 82.2937C32.5624 81.9931 31.9753 81.5248 31.5322 80.9333L20.4822 66.2C20.2804 65.9309 20.0187 65.7125 19.7178 65.5621C19.417 65.4117 19.0852 65.3333 18.7488 65.3333H2.81084C1.55418 65.3333 0.55751 66.4037 0.691843 67.6517C4.00684 98.0283 29.7425 121.667 60.9988 121.667C92.2552 121.667 117.991 98.0283 121.306 67.6517Z" fill="white"/>
</g>
<g filter="url(#filter1_i_87_1787)">
<path d="M121.306 54.3483C121.336 54.6433 121.304 54.9413 121.21 55.2227C121.117 55.5042 120.966 55.7628 120.766 55.9817C120.566 56.2005 120.322 56.3746 120.05 56.4927C119.778 56.6107 119.484 56.67 119.187 56.6667H95.666C94.8276 56.6666 94.0072 56.9097 93.3042 57.3666C92.6012 57.8235 92.0458 58.4745 91.7054 59.2407L81.1754 82.9267C80.997 83.3241 80.703 83.6586 80.3317 83.8865C79.9604 84.1143 79.529 84.2249 79.0939 84.2038C78.6587 84.1828 78.24 84.0311 77.8925 83.7684C77.5449 83.5058 77.2845 83.1445 77.1454 82.7317L60.7784 33.6307C60.5073 32.8177 60.0012 32.1034 59.3242 31.5781C58.6472 31.0527 57.8296 30.7399 56.9748 30.6791C56.12 30.6183 55.2664 30.8124 54.5219 31.2367C53.7774 31.661 53.1754 32.2966 52.792 33.063L35.8227 66.9887C35.6573 67.3187 35.4104 67.601 35.1052 67.8088C34.8001 68.0166 34.447 68.143 34.0793 68.1759C33.7116 68.2089 33.3416 68.1474 33.0044 67.9973C32.6672 67.8471 32.3739 67.6133 32.1524 67.318L25.4661 58.4C25.0624 57.8618 24.539 57.425 23.9373 57.1242C23.3356 56.8233 22.6721 56.6667 21.9994 56.6667H2.81139C2.51492 56.67 2.22109 56.6107 1.94912 56.4927C1.67715 56.3746 1.43317 56.2005 1.23315 55.9817C1.03312 55.7628 0.881554 55.5042 0.788368 55.2227C0.695182 54.9413 0.662475 54.6433 0.692386 54.3483C4.00739 23.9717 29.743 0.333344 60.9994 0.333344C92.2557 0.333344 117.991 23.9717 121.306 54.3483Z" fill="white"/>
</g>
<defs>
<filter id="filter0_i_87_1787" x="0.679688" y="49.7735" width="120.637" height="71.8932" filterUnits="userSpaceOnUse" color-interpolation-filters="sRGB">
<feFlood flood-opacity="0" result="BackgroundImageFix"/>
<feBlend mode="normal" in="SourceGraphic" in2="BackgroundImageFix" result="shape"/>
<feColorMatrix in="SourceAlpha" type="matrix" values="0 0 0 0 0 0 0 0 0 0 0 0 0 0 0 0 0 0 127 0" result="hardAlpha"/>
<feOffset/>
<feGaussianBlur stdDeviation="10"/>
<feComposite in2="hardAlpha" operator="arithmetic" k2="-1" k3="1"/>
<feColorMatrix type="matrix" values="0 0 0 0 0.1875 0 0 0 0 0.972917 0 0 0 0 1 0 0 0 0.2 0"/>
<feBlend mode="normal" in2="shape" result="effect1_innerShadow_87_1787"/>
</filter>
<filter id="filter1_i_87_1787" x="0.681641" y="0.333344" width="120.635" height="83.873" filterUnits="userSpaceOnUse" color-interpolation-filters="sRGB">
<feFlood flood-opacity="0" result="BackgroundImageFix"/>
<feBlend mode="normal" in="SourceGraphic" in2="BackgroundImageFix" result="shape"/>
<feColorMatrix in="SourceAlpha" type="matrix" values="0 0 0 0 0 0 0 0 0 0 0 0 0 0 0 0 0 0 127 0" result="hardAlpha"/>
<feOffset/>
<feGaussianBlur stdDeviation="10"/>
<feComposite in2="hardAlpha" operator="arithmetic" k2="-1" k3="1"/>
<feColorMatrix type="matrix" values="0 0 0 0 0.1875 0 0 0 0 0.972917 0 0 0 0 1 0 0 0 0.2 0"/>
<feBlend mode="normal" in2="shape" result="effect1_innerShadow_87_1787"/>
</filter>
</defs>
</svg>
