<svg width="62" height="64" viewBox="0 0 62 64" fill="none" xmlns="http://www.w3.org/2000/svg">
<path d="M18.5696 1.33334C19.3696 0.533338 20.4363 0 21.5029 0H29.2363C30.303 0 30.8363 1.06668 30.0363 1.86668L14.8362 18.4001H23.3696L31.903 27.4669H14.8362L31.903 45.867H21.5029C20.4363 45.867 19.1029 45.3337 18.3029 44.5337L0.969439 25.8669C-0.363905 24.2669 -0.363905 21.6002 1.23611 20.0002L18.5696 1.33334Z" fill="#1EA2B4"/>
<path d="M42.3027 62.6665C41.5027 63.4665 40.436 63.9999 39.1027 63.9999H31.3693C30.3026 63.9999 29.7692 62.9332 30.5693 62.1332L46.036 45.5997H37.5026L28.9692 36.533H46.036L28.9692 18.1328H39.3693C40.436 18.1328 41.7693 18.6662 42.5693 19.4662L59.9028 38.133C61.5028 39.733 61.5028 42.3997 59.9028 43.9997L42.3027 62.6665Z" fill="#1EA2B4"/>
</svg>
