<svg width="74" height="75" viewBox="0 0 74 75" fill="none" xmlns="http://www.w3.org/2000/svg">
<path d="M73.9745 37.5156V37.3701C73.9017 16.7931 57.3028 0 36.9872 0C16.6717 0 0 16.7931 0 37.5156C0 58.2407 16.5963 75 36.9872 75C46.344 75.0063 55.3429 71.4101 62.1118 64.9595C62.7785 64.3513 63.1759 63.5035 63.2167 62.6027C63.2574 61.7019 62.9381 60.8218 62.329 60.1561C61.7199 59.4904 60.8709 59.0935 59.9688 59.0528C59.0667 59.0122 58.1854 59.331 57.5187 59.9392L57.4458 60.0119C54.5252 62.7844 51.0737 64.939 47.2984 66.3463C43.5232 67.7536 39.5021 68.3846 35.4765 68.2015C31.4509 68.0183 27.5039 67.0248 23.8725 65.2806C20.241 63.5363 16.9999 61.0773 14.3439 58.0511L30.1443 32.7498V44.4577C30.1443 50.0519 32.329 51.8725 34.1653 52.3816C36.0015 52.8906 38.7558 52.5218 41.7391 47.7976L50.4078 33.7419C50.6393 33.3316 50.9072 32.942 51.2037 32.5758V39.705C51.2037 44.9382 53.3156 49.1559 56.9543 51.1895C58.6339 52.1027 60.53 52.5446 62.441 52.4683C64.352 52.3919 66.2066 51.8001 67.8078 50.7558C72.0108 48.0314 74.2684 43.2604 73.9745 37.5156ZM64.3616 44.8785C63.7779 45.28 63.0974 45.5184 62.3904 45.5691C61.6834 45.6198 60.9758 45.4809 60.3406 45.1667C58.8841 44.2967 58.0076 42.3359 58.0076 39.6452V31.4045C58.0076 27.4829 56.4783 24.6442 53.8592 23.9222C49.4143 22.5821 46.0695 28.0646 44.8289 30.1008L36.9872 42.6761V27.192C36.9144 23.6313 35.7466 21.5224 33.5619 20.8654C32.1054 20.4316 29.9206 20.6524 27.8113 23.8521L10.2631 51.9141C7.92861 47.4721 6.70519 42.5321 6.69729 37.5156C6.69729 20.5745 20.3103 6.83306 36.9872 6.83306C53.6641 6.83306 67.2772 20.5745 67.2772 37.5156V37.6636C67.4515 40.9308 66.4007 43.5539 64.3642 44.8577L64.3616 44.8785Z" fill="white"/>
</svg>
