<svg width="83" height="59" viewBox="0 0 83 59" fill="none" xmlns="http://www.w3.org/2000/svg">
<path d="M82.6652 2.00734C85.3985 39.0506 61.6018 56.5593 40.2688 58.4263C20.4354 60.1619 1.7665 47.9673 0.128713 29.2312C-1.2223 13.7523 8.33847 7.16243 15.8502 6.50551C23.5764 5.82786 30.0687 11.1593 30.6319 17.6143C31.1745 23.8206 27.3045 26.6452 24.6129 26.8804C22.4844 27.067 19.8066 25.7739 19.5647 22.9976C19.3575 20.612 20.2627 20.2869 20.0415 17.7526C19.6477 13.2407 15.7155 12.7151 13.5629 12.9018C10.9576 13.1301 6.23074 16.1726 6.89417 23.7514C7.56103 31.396 14.8863 37.4358 24.4885 36.5958C34.8508 35.6898 42.0658 27.6167 42.608 16.2936C42.603 15.6938 42.7294 15.1002 42.9777 14.5545L42.9811 14.5407C43.0927 14.3035 43.2234 14.0757 43.3717 13.8596C43.5928 13.5276 43.8762 13.1611 44.2426 12.7601C44.2456 12.7497 44.2456 12.7497 44.2527 12.7497C44.5186 12.4489 44.8401 12.1239 45.2028 11.7747C49.7293 7.50124 66.0313 -2.57723 81.4489 0.61399C81.7745 0.68389 82.0691 0.857342 82.2885 1.10845C82.5075 1.35959 82.6396 1.6749 82.6652 2.00734Z" fill="url(#paint0_linear_173_4075)"/>
<defs>
<linearGradient id="paint0_linear_173_4075" x1="74.3321" y1="13.9788" x2="12.2568" y2="49.1638" gradientUnits="userSpaceOnUse">
<stop stop-color="#0CC5FF"/>
<stop offset="1" stop-color="#007FFF"/>
</linearGradient>
</defs>
</svg>
