<svg width="68" height="63" viewBox="0 0 68 63" fill="none" xmlns="http://www.w3.org/2000/svg">
<path d="M64.4963 1L38.3906 20.3111L43.2581 8.92707L64.4963 1Z" fill="#E17726" stroke="#E17726" stroke-width="0.30303" stroke-linecap="round" stroke-linejoin="round"/>
<path d="M4.29769 1L30.165 20.47L25.5359 8.94694L4.29769 1ZM55.0985 45.7611L48.1449 56.3703L63.0255 60.4629L67.2772 45.9995L55.0985 45.7611ZM1.53613 45.9995L5.76788 60.4629L20.6088 56.3703L13.6949 45.7611L1.53613 45.9995Z" fill="#E27625" stroke="#E27625" stroke-width="0.30303" stroke-linecap="round" stroke-linejoin="round"/>
<path d="M19.815 27.8413L15.6826 34.0796L30.3844 34.7551L29.9076 18.9208L19.815 27.8611V27.8413ZM48.9803 27.8611L38.7287 18.7222L38.391 34.7551L53.0928 34.0796L48.9803 27.8611ZM20.6097 56.3708L29.5302 52.0794L21.8614 46.1192L20.6097 56.3708ZM39.285 52.0596L48.1458 56.3708L46.9538 46.0994L39.285 52.0596Z" fill="#E27625" stroke="#E27625" stroke-width="0.30303" stroke-linecap="round" stroke-linejoin="round"/>
<path d="M48.1455 56.3709L39.2847 52.0796L39.9999 57.8411L39.9204 60.2848L48.1455 56.3709ZM20.6094 56.3709L28.8742 60.2848L28.8146 57.8411L29.5298 52.0796L20.6094 56.3709Z" fill="#D5BFB2" stroke="#D5BFB2" stroke-width="0.30303" stroke-linecap="round" stroke-linejoin="round"/>
<path d="M29.014 42.2845L21.6631 40.1388L26.8683 37.7547L29.0339 42.2845H29.014ZM39.7622 42.2845L41.9476 37.7349L47.1727 40.1189L39.7622 42.3044V42.2845Z" fill="#233447" stroke="#233447" stroke-width="0.30303" stroke-linecap="round" stroke-linejoin="round"/>
<path d="M20.6082 56.3707L21.8995 45.7616L13.6943 46L20.6082 56.3707ZM46.8927 45.7616L48.1443 56.3707L55.0979 46L46.8927 45.7616ZM53.1111 34.0796L38.4093 34.7551L39.7603 42.3047L41.9457 37.7352L47.1708 40.1193L53.1111 34.0796ZM21.6611 40.1391L26.8664 37.755L29.0319 42.2848L30.4028 34.7352L15.7009 34.0796L21.6611 40.1391Z" fill="#CC6228" stroke="#CC6228" stroke-width="0.30303" stroke-linecap="round" stroke-linejoin="round"/>
<path d="M15.7021 34.0796L21.861 46.0993L21.6624 40.1391L15.7021 34.0796ZM47.172 40.1391L46.9336 46.0993L53.0925 34.0796L47.172 40.1391ZM30.404 34.7551L29.0133 42.3047L30.7616 51.2052L31.1589 39.4636L30.404 34.7551ZM38.3906 34.7551L37.6754 39.4438L38.033 51.2052L39.7615 42.2848L38.3906 34.7352V34.7551Z" fill="#E27525" stroke="#E27525" stroke-width="0.30303" stroke-linecap="round" stroke-linejoin="round"/>
<path d="M39.7606 42.2843L38.0322 51.2048L39.2838 52.0789L46.9327 46.1187L47.1711 40.1387L39.7606 42.2843ZM21.6615 40.1387L21.8601 46.0989L29.5289 52.0591L30.7607 51.2048L29.0322 42.2843L21.6416 40.1387H21.6615Z" fill="#F5841F" stroke="#F5841F" stroke-width="0.30303" stroke-linecap="round" stroke-linejoin="round"/>
<path d="M39.9403 60.285L39.9999 57.8413L39.3244 57.285H29.4702L28.8146 57.8413L28.8742 60.285L20.6094 56.3711L23.51 58.7552L29.3709 62.7882H39.4039L45.2846 58.7353L48.1455 56.3711L39.9204 60.285H39.9403Z" fill="#C0AC9D" stroke="#C0AC9D" stroke-width="0.30303" stroke-linecap="round" stroke-linejoin="round"/>
<path d="M39.2845 52.0594L38.0329 51.2051H30.7615L29.5297 52.0792L28.8145 57.8408L29.4701 57.2845H39.3243L39.9998 57.8408L39.2845 52.0792V52.0594Z" fill="#161616" stroke="#161616" stroke-width="0.30303" stroke-linecap="round" stroke-linejoin="round"/>
<path d="M65.6086 21.5627L67.794 10.9337L64.496 1L39.2645 19.6753L48.9796 27.8408L62.6881 31.8341L65.7079 28.3176L64.3967 27.364L66.4827 25.4567L64.8934 24.2249L66.9794 22.6355L65.5887 21.5627H65.6086ZM1 10.9138L3.22514 21.5627L1.79469 22.6157L3.9205 24.2051L2.33111 25.4567L4.39732 27.364L3.08607 28.3176L6.10591 31.8341L19.8144 27.8606L29.5295 19.6554L4.29798 1L1 10.9138Z" fill="#763E1A" stroke="#763E1A" stroke-width="0.30303" stroke-linecap="round" stroke-linejoin="round"/>
<path d="M62.6878 31.8343L48.9793 27.8608L53.1117 34.0793L46.9529 46.099L55.0985 45.9997H67.2772L62.6878 31.8343ZM19.8141 27.841L6.10562 31.8343L1.53613 45.9997H13.7148L21.8604 46.099L15.7015 34.0793L19.834 27.841H19.8141ZM38.39 34.7548L39.2841 19.6556L43.2575 8.92725H25.5359L29.5093 19.6556L30.4034 34.7548L30.7411 39.4832V51.2049H38.0324L38.0722 39.4832L38.39 34.7548Z" fill="#F5841F" stroke="#F5841F" stroke-width="0.30303" stroke-linecap="round" stroke-linejoin="round"/>
</svg>
