<svg width="58" height="58" viewBox="0 0 58 58" fill="none" xmlns="http://www.w3.org/2000/svg">
<path d="M34.0093 58V34.162C39.7019 34.771 43.5647 37.381 43.5647 37.381L47.1951 33.292C41.2412 29.058 32.4119 28.884 32.4119 28.884L30.9598 12.876C31.9182 12.238 32.5572 11.165 32.5572 9.918C32.5572 7.975 30.9598 6.38 29.0139 6.38C27.0679 6.38 25.4705 7.975 25.4705 9.918C25.4705 11.165 26.1095 12.267 27.0679 12.876L25.6158 28.884C25.6158 28.884 16.7865 29.029 10.8326 33.292L14.463 37.381C14.463 37.381 18.3258 34.771 24.0184 34.162V58C1.77098 41.528 -0.0587606 17.603 -0.000673467 9.657C-0.000673467 8.004 0.986808 6.496 2.49707 5.829C6.94074 3.857 17.0769 0 28.9848 0C40.8927 0 51.0289 3.857 55.4725 5.829C56.9828 6.496 57.9703 8.004 57.9703 9.657C58.0284 17.603 56.1986 41.528 34.0093 58Z" fill="#FFAF1D"/>
</svg>
