<svg width="112" height="120" viewBox="0 0 112 120" fill="none" xmlns="http://www.w3.org/2000/svg">
<path d="M53.0081 120V96.2583C53.0081 81.4594 48.8597 69.7684 29.913 60.5113C17.2828 54.3386 7.31219 47.1623 0 38.981V79.0642C0 95.1556 6.89538 108.203 26.5044 113.538C39.5771 117.094 48.4114 119.248 53.0081 119.999V120Z" fill="#30F8FF"/>
<path d="M53.0081 0V23.7416C53.0081 38.5406 48.8597 50.2316 29.913 59.4887C17.2828 65.6614 7.31219 72.8377 0 81.0183V40.9351C0 24.8437 6.89538 11.796 26.5044 6.46151C39.5771 2.90519 48.4114 0.750911 53.0081 0Z" fill="#30F8FF"/>
<path d="M58.5068 0V23.7416C58.5068 38.5406 62.6552 50.2316 81.6019 59.4887C94.2329 65.6607 104.204 72.837 111.516 81.0183V40.9351C111.516 24.8437 104.62 11.796 85.0106 6.46151C71.9385 2.90519 63.1035 0.750911 58.5068 0Z" fill="#30F8FF"/>
<path d="M58.5068 120V96.2584C58.5068 81.4594 62.6552 69.7684 81.6019 60.5113C94.2329 54.3393 104.204 47.163 111.516 38.9817V79.0649C111.516 95.1563 104.62 108.204 85.0106 113.538C71.9385 117.095 63.1035 119.249 58.5068 120Z" fill="#30F8FF"/>
</svg>
