<svg width="40" height="40" viewBox="0 0 40 40" fill="none" xmlns="http://www.w3.org/2000/svg">
<path fill-rule="evenodd" clip-rule="evenodd" d="M21.345 39.0153V38.9438C26.9302 37.9098 31.19 30.5123 31.5475 21.0578H39.2447C38.9345 25.7085 36.9506 30.0896 33.66 33.3908C30.3694 36.692 25.9947 38.69 21.345 39.0153ZM39.2447 18.4838H31.5475C31.1872 8.96325 26.8725 1.52175 21.2295 0.570252V0.520752C25.9008 0.818735 30.3044 2.80547 33.619 6.11051C36.9337 9.41555 38.9332 13.8133 39.2447 18.4838ZM8.45311 21.0579H0.755859C1.06741 25.7283 3.06692 30.1261 6.38158 33.4311C9.69623 36.7362 14.0998 38.7229 18.7711 39.0209V38.9714C13.1281 38.0199 8.81336 30.5811 8.45311 21.0579ZM0.755859 18.4839H8.45311C8.81061 9.02937 13.0704 1.63187 18.6556 0.597867V0.526367C14.0059 0.851623 9.63119 2.8496 6.3406 6.1508C3.05001 9.45201 1.06614 13.8331 0.755859 18.4839ZM11.0244 21.0579C11.3599 28.7882 14.6654 35.2204 18.7629 36.3204L18.7162 21.0579H11.0244ZM28.9764 21.0579H21.2929L21.3397 36.2929C25.3877 35.1159 28.6437 28.7249 28.9764 21.0579ZM28.9764 18.4839C28.6409 10.7537 25.3354 4.32144 21.2379 3.22144L21.2847 18.4839H28.9764ZM11.0244 18.4839H18.7079L18.6612 3.24894C14.6132 4.42869 11.3572 10.8169 11.0244 18.4839Z" fill="currentColor"/>
</svg>
