<svg width="37" height="37" viewBox="0 0 37 37" fill="none" xmlns="http://www.w3.org/2000/svg">
<path d="M18.7924 0.375732C17.8132 0.375732 16.8538 0.4579 15.9171 0.609199C16.3279 0.763899 16.8408 0.847199 17.5401 0.813766C19.9461 0.699299 21.437 1.15773 19.7166 1.84623C17.9962 2.53473 18.3164 3.26573 19.1194 3.32297C19.9223 3.3802 21.794 2.5234 22.4151 3.27707C23.056 4.0551 21.696 5.33123 22.5069 6.70993C23.7133 8.76183 19.5868 9.2316 18.5442 10.7701C17.5383 12.2542 16.9711 13.8437 18.1181 15.9744C19.265 18.105 19.5347 16.8181 21.5515 17.0516C25.5272 17.5117 24.3372 20.6244 29.2355 21.5991C31.1095 21.972 29.8214 26.0429 26.5331 28.0047C23.3637 29.8951 24.3644 32.0637 19.8605 33.5099C18.7782 33.8572 17.9548 33.6578 18.7924 32.4536C20.417 30.1184 20.2759 27.5157 18.7924 26.3506C17.3088 25.1855 15.6457 24.9317 16.0469 23.1376C16.4481 21.3435 18.0008 20.7157 18.1113 19.1029C18.2178 17.5474 15.75 12.2531 12.6656 13.3014C10.9038 13.9004 7.49645 11.6592 7.67665 8.72443C7.88575 5.3148 10.4975 4.79233 9.91102 2.76423C9.90932 2.75857 9.91158 2.7512 9.91102 2.74497C4.55318 5.82537 0.942383 11.6025 0.942383 18.2263C0.942383 28.0846 8.93408 36.0763 18.7924 36.0763C28.6507 36.0763 36.6424 28.0846 36.6424 18.2263C36.6424 8.368 28.6507 0.375732 18.7924 0.375732Z" fill="currentColor"/>
</svg>
