<svg width="33" height="33" viewBox="0 0 33 33" fill="none" xmlns="http://www.w3.org/2000/svg">
<path fill-rule="evenodd" clip-rule="evenodd" d="M12.0804 7.05549C11.84 6.47515 11.7163 5.85314 11.7163 5.22498C11.7163 4.59683 11.84 3.97482 12.0804 3.39448C12.3208 2.81414 12.6731 2.28683 13.1173 1.84266C13.5615 1.39848 14.0888 1.04615 14.6691 0.80576C15.2495 0.565375 15.8715 0.44165 16.4996 0.44165C17.1278 0.44165 17.7498 0.565375 18.3301 0.80576C18.9105 1.04615 19.4378 1.39848 19.882 1.84266C20.3261 2.28683 20.6785 2.81414 20.9189 3.39448C21.1593 3.97482 21.283 4.59683 21.283 5.22498C21.283 5.85314 21.1593 6.47515 20.9189 7.05549C20.6785 7.63583 20.3261 8.16314 19.882 8.60731C19.4378 9.05149 18.9105 9.40382 18.3301 9.64421C18.1781 9.70718 18.0232 9.76214 17.8661 9.80897V14.1084H27.4328C28.5603 14.1084 29.4828 15.0309 29.4828 16.1584V20.9417H26.7494V16.8417H17.8661V20.9588H15.1328V16.8417H6.24945V20.9417H3.51611V16.1584C3.51611 15.0309 4.43861 14.1084 5.56611 14.1084H15.1328V9.80888C14.9758 9.76206 14.8211 9.70713 14.6691 9.64421C14.0888 9.40382 13.5615 9.05149 13.1173 8.60731C12.6731 8.16314 12.3208 7.63583 12.0804 7.05549ZM0.0996094 27.775C0.099552 28.4032 0.223234 29.0252 0.463593 29.6056C0.703953 30.186 1.05628 30.7134 1.50046 31.1576C1.94464 31.6018 2.47197 31.9542 3.05234 32.1946C3.63271 32.435 4.25475 32.5588 4.88294 32.5588C5.51114 32.5588 6.13318 32.435 6.71355 32.1946C7.29392 31.9542 7.82125 31.6018 8.26542 31.1576C8.7096 30.7134 9.06193 30.186 9.30229 29.6056C9.54265 29.0252 9.66633 28.4032 9.66628 27.775C9.66633 27.1468 9.54265 26.5247 9.30229 25.9443C9.06193 25.364 8.7096 24.8366 8.26542 24.3924C7.82125 23.9482 7.29392 23.5958 6.71355 23.3554C6.13318 23.115 5.51114 22.9912 4.88294 22.9912C4.25475 22.9912 3.63271 23.115 3.05234 23.3554C2.47197 23.5958 1.94464 23.9482 1.50046 24.3924C1.05628 24.8366 0.703953 25.364 0.463593 25.9443C0.223234 26.5247 0.099552 27.1468 0.0996094 27.775ZM23.697 29.6056C23.4566 29.0252 23.333 28.4032 23.333 27.775C23.333 27.1468 23.4566 26.5247 23.697 25.9443C23.9373 25.364 24.2897 24.8366 24.7339 24.3924C25.178 23.9482 25.7054 23.5958 26.2857 23.3554C26.8661 23.115 27.4881 22.9912 28.1163 22.9912C28.7445 22.9912 29.3666 23.115 29.9469 23.3554C30.5273 23.5958 31.0546 23.9482 31.4988 24.3924C31.943 24.8366 32.2953 25.364 32.5357 25.9443C32.7761 26.5247 32.8997 27.1468 32.8997 27.775C32.8997 28.4032 32.7761 29.0252 32.5357 29.6056C32.2953 30.186 31.943 30.7134 31.4988 31.1576C31.0546 31.6018 30.5273 31.9542 29.9469 32.1946C29.3666 32.435 28.7445 32.5588 28.1163 32.5588C27.4881 32.5588 26.8661 32.435 26.2857 32.1946C25.7054 31.9542 25.178 31.6018 24.7339 31.1576C24.2897 30.7134 23.9373 30.186 23.697 29.6056ZM11.7163 27.775C11.7163 28.4032 11.84 29.0252 12.0804 29.6055C12.3208 30.1859 12.6731 30.7132 13.1173 31.1574C13.5615 31.6015 14.0888 31.9539 14.6691 32.1943C15.2495 32.4346 15.8715 32.5584 16.4996 32.5584C17.1278 32.5584 17.7498 32.4346 18.3301 32.1943C18.9105 31.9539 19.4378 31.6015 19.882 31.1574C20.3261 30.7132 20.6785 30.1859 20.9189 29.6055C21.1593 29.0252 21.283 28.4032 21.283 27.775C21.283 27.1469 21.1593 26.5249 20.9189 25.9445C20.6785 25.3642 20.3261 24.8369 19.882 24.3927C19.4378 23.9485 18.9105 23.5962 18.3301 23.3558C17.7498 23.1154 17.1278 22.9917 16.4996 22.9917C15.8715 22.9917 15.2495 23.1154 14.6691 23.3558C14.0888 23.5962 13.5615 23.9485 13.1173 24.3927C12.6731 24.8369 12.3208 25.3642 12.0804 25.9445C11.84 26.5249 11.7163 27.1469 11.7163 27.775Z" fill="currentColor"/>
</svg>
