<svg width="134" height="124" viewBox="0 0 134 124" fill="none" xmlns="http://www.w3.org/2000/svg">
<path d="M100.917 0L134 20V100L100.917 120L35 80V40L100.917 80V40L67.8342 20L100.917 0Z" fill="#30F8FF"/>
<path d="M34.5037 124C33.7995 124 33.3301 123.765 32.6259 123.531L1.64303 104.753C0.469438 104.049 -1.37531e-07 102.875 0 101.702V26.5917C0 25.4181 0.704157 24.2445 1.64303 23.5403L32.6259 4.76283C33.7995 4.05867 35.2078 4.05867 36.3814 4.76283L67.599 23.5403C69.2421 24.4792 69.7115 26.8264 68.7726 28.4694C67.8337 30.1125 65.4866 30.5819 63.8435 29.643L34.5037 12.0391L7.04156 28.4694V99.5892L34.5037 116.254L61.9658 97.9462C63.6088 96.7726 65.7213 97.242 66.8949 98.8851C68.0685 100.528 67.599 102.641 65.956 103.814L36.6161 123.296C35.912 123.765 35.2078 124 34.5037 124Z" fill="#30F8FF"/>
</svg>
