<svg width="121" height="147" viewBox="0 0 121 147" fill="none" xmlns="http://www.w3.org/2000/svg">
<path d="M107.708 65.4116C115.051 65.4116 121 59.2196 121 51.5796C121 43.9397 115.047 37.7477 107.708 37.7477C100.37 37.7477 94.417 43.9397 94.417 51.5796C94.417 52.5424 94.5123 53.483 94.6957 54.391L86.1173 58.6171C82.6549 53.7735 77.1315 50.6245 70.8893 50.6245C70.7023 50.6245 70.5224 50.6464 70.3391 50.6539L67.075 40.6583C73.4165 36.9283 77.7076 29.858 77.7076 21.733C77.7043 9.73109 68.3514 0 56.8127 0C45.2777 0 35.9254 9.73109 35.9254 21.7365C35.9254 33.7421 45.2782 43.4731 56.8127 43.4731C57.3629 43.4731 57.9054 43.4288 58.4446 43.3885L61.6317 53.1413C55.8258 56.5222 51.8939 62.9753 51.8939 70.3911C51.8939 72.0485 52.1103 73.6505 52.4809 75.1903L43.363 79.6809C39.09 73.1581 31.8978 68.8734 23.7373 68.8734C10.6291 68.8734 0 79.9313 0 93.5717C0 107.212 10.629 118.27 23.7373 118.27C36.8455 118.27 47.4746 107.212 47.4746 93.5717C47.4746 92.021 47.3206 90.5109 47.0564 89.0368L57.1829 84.0499C60.638 87.8021 65.4936 90.1502 70.8816 90.1502C71.8239 90.1502 72.741 90.0547 73.6432 89.9188L80.2413 110.119C74.5454 113.53 70.7016 119.913 70.7016 127.24C70.7016 138.155 79.2032 147 89.6892 147C100.175 147 108.677 138.155 108.677 127.24C108.677 116.326 100.175 107.481 89.6892 107.481C89.4215 107.481 89.1647 107.51 88.9007 107.521L81.9945 86.3836C86.755 82.7934 89.8652 76.9761 89.8652 70.3908C89.8652 69.5858 89.8064 68.7995 89.7148 68.0206L100.094 62.9089C102.262 64.4743 104.873 65.4116 107.708 65.4116Z" fill="#30F8FF"/>
</svg>
