<svg width="38" height="35" viewBox="0 0 38 35" fill="none" xmlns="http://www.w3.org/2000/svg">
<path fill-rule="evenodd" clip-rule="evenodd" d="M23.2115 19.6034C23.6289 19.1551 24.125 18.7862 24.6754 18.5146H24.6772C23.4549 17.7826 22.1407 17.2144 20.7687 16.8248C22.5027 15.8418 23.8612 14.316 24.6327 12.4852C25.4042 10.6544 25.5453 8.62128 25.034 6.70242C24.5228 4.78356 23.3879 3.0867 21.806 1.87608C20.2242 0.665455 18.2843 0.0090332 16.2883 0.0090332C14.2924 0.0090332 12.3524 0.665455 10.7706 1.87608C9.18879 3.0867 8.05388 4.78356 7.54263 6.70242C7.03137 8.62128 7.17246 10.6544 7.94393 12.4852C8.7154 14.316 10.0739 15.8418 11.808 16.8248C8.09314 17.8829 4.87735 20.2197 2.7348 23.418C0.592251 26.6163 -0.337581 30.4678 0.111323 34.285L29.0598 34.3623L29.0381 34.3407L29.0342 34.337C24.6284 30.0379 21.7168 27.1969 21.7168 23.5393C21.7168 22.0329 22.2488 20.6346 23.2115 19.6034ZM30.7636 21.171C31.12 20.7949 31.5398 20.4817 31.9922 20.2532H31.9904C32.5731 19.9598 33.2209 19.8033 33.8578 19.8033C34.4115 19.8008 34.9595 19.9131 35.4671 20.1331C35.9746 20.3531 36.4305 20.676 36.8055 21.081C37.5764 21.9071 38.0016 23.0246 38.0016 24.2304C38.0016 27.1522 35.6791 29.4217 32.1686 32.8521L32.146 32.8741L32.0013 33.0145L31.006 33.9665L30.7636 34.2005L29.5259 33.0127L29.3847 32.8741C25.858 29.4332 23.5273 27.1584 23.5273 24.2322C23.5273 23.0264 23.9526 21.9089 24.7234 21.0828C25.4961 20.2586 26.542 19.8033 27.6693 19.8033C28.318 19.8063 28.9569 19.9604 29.5349 20.2532C29.9942 20.4869 30.4098 20.7974 30.7636 21.171Z" fill="CurrentColor"/>
</svg>
