<svg width="33" height="39" viewBox="0 0 33 39" fill="none" xmlns="http://www.w3.org/2000/svg">
<path d="M25.7217 10.9439L26.0802 11.1621L26.4309 11.4037V11.8245C26.4788 12.8651 26.3253 13.905 25.9789 14.8873C25.7392 15.5633 25.2705 16.1341 24.654 16.5006C24.3053 17.8491 23.7812 19.146 23.0953 20.3583C22.3852 21.6359 21.2487 22.6234 19.8845 23.1483C18.627 23.4296 17.3368 23.5371 16.0501 23.4678C14.8209 23.507 13.593 23.3545 12.4106 23.0158C11.1569 22.407 10.1361 21.4055 9.50371 20.1634C8.90386 19.0099 8.43841 17.7914 8.11649 16.5317C7.48601 16.1787 7.00234 15.6122 6.75265 14.9341C6.38469 13.9379 6.22296 12.8773 6.27726 11.8168V11.3881L6.62796 11.1543L6.90072 10.9829C6.50326 6.06525 6.65913 4.2494 8.4594 2.16857C12.021 -0.746149 20.1494 -0.644835 23.7889 2.00491C26.2439 4.34292 26.4153 6.92252 25.6593 10.9361L25.7217 10.9439ZM18.2479 25.1824L18.3024 26.3046L17.6322 27.4113L18.5674 33.5447L22.3706 25.3538L28.1766 25.1278C31.177 27.9646 33.0942 34.6435 32.6266 39H0.276367C0.362094 35.1735 1.0557 28.6426 4.87445 25.3149L10.1116 25.3616L15.0292 33.4667L15.9488 27.4035L15.2786 26.3046L15.3331 25.1824C16.3034 25.1122 17.2776 25.1122 18.2479 25.1824ZM22.5888 9.22156C20.2508 9.67358 16.8528 10.0632 14.133 8.54354C13.0887 7.95904 11.5612 9.15922 10.3142 9.03452C9.91836 9.82234 9.63503 10.6618 9.47254 11.5284L9.34005 12.2688L8.56071 12.1986C8.41298 12.183 8.26363 12.2017 8.12428 12.2532L7.92166 12.3311C7.91917 13.0142 8.03791 13.6924 8.27236 14.334C8.33038 14.5249 8.43053 14.7004 8.56542 14.8474C8.7003 14.9944 8.86648 15.1093 9.05169 15.1835L9.48812 15.316L9.61282 15.7524C9.91472 17.0191 10.3646 18.2459 10.9533 19.4075C11.4179 20.3435 12.176 21.1017 13.112 21.5662C14.0841 21.798 15.0825 21.9002 16.0813 21.8702C17.1724 21.9308 18.2667 21.8548 19.3389 21.6442C20.3409 21.2426 21.1688 20.5001 21.6769 19.5478C22.3398 18.3497 22.8304 17.0641 23.1343 15.729L23.2512 15.316L23.6642 15.1757C23.8485 15.0979 24.0137 14.9809 24.1483 14.8328C24.2829 14.6848 24.3836 14.5093 24.4436 14.3184C24.6708 13.6834 24.7842 13.0133 24.7787 12.3389L24.5917 12.2688C24.4591 12.2221 24.319 12.201 24.1786 12.2064L23.4538 12.2532L23.3213 11.544C23.1623 10.7346 22.9004 9.94889 22.542 9.20598L22.5888 9.22156Z" fill="currentColor"/>
</svg>
