<svg width="45" height="33" viewBox="0 0 45 33" fill="none" xmlns="http://www.w3.org/2000/svg">
<path d="M35.3738 20.2349C36.0531 20.5424 36.4677 21.2099 36.4177 21.9199V30.9349C36.4259 31.4103 36.2557 31.8715 35.9407 32.2274C35.7892 32.4027 35.6005 32.5417 35.3882 32.6343C35.176 32.7269 34.9458 32.7707 34.7144 32.7624H9.85617C9.63482 32.7667 9.41539 32.7207 9.21428 32.6281C9.01316 32.5354 8.83558 32.3985 8.69481 32.2274C8.37829 31.8723 8.20707 31.4108 8.21527 30.9349V21.9199C8.1956 21.5655 8.2855 21.2136 8.47275 20.9121C8.66 20.6106 8.93549 20.3741 9.26175 20.2349L19.0122 15.8249C17.7116 15.0653 16.6718 13.9286 16.0301 12.5649C15.3619 11.3325 15.0125 9.95221 15.0136 8.54994C14.9787 8.13819 14.9787 7.7242 15.0136 7.31244C15.165 6.34318 15.4465 5.39882 15.8503 4.50494C16.3199 3.48994 17.0342 2.59494 17.9383 1.88994C19.1879 0.826254 20.7748 0.242188 22.4152 0.242188C24.0555 0.242188 25.6424 0.826254 26.892 1.88994C28.2008 3.03494 29.1149 4.52244 29.517 6.15994C29.6843 6.88994 29.7742 7.63494 29.7867 8.37994C29.7907 9.69925 29.5051 11.0033 28.95 12.1999C28.3306 13.6072 27.2882 14.7861 25.9679 15.5724L28.95 16.9199L35.3738 20.2349ZM6.62183 19.6724C6.18738 20.3409 5.95894 21.1225 5.96497 21.9199V29.5974H1.3245C1.14353 29.6039 0.963454 29.5693 0.797782 29.4961C0.632109 29.4229 0.48515 29.3131 0.367938 29.1749C0.120039 28.876 -0.00812888 28.4956 0.00828912 28.1074V20.7674C-0.0244342 20.4775 0.0403068 20.1849 0.192281 19.9359C0.344255 19.6869 0.574796 19.4956 0.84747 19.3924L7.58089 15.8249C6.59432 15.2553 5.77975 14.4296 5.2232 13.4349C4.62247 12.3738 4.31392 11.172 4.32907 9.95244C4.32603 9.07832 4.48787 8.21147 4.8061 7.39744C5.36524 5.85001 6.51374 4.58714 8.00048 3.88494C9.22894 3.28954 10.639 3.18931 11.9391 3.60494C12.4386 3.77244 12.9207 3.98744 13.3727 4.24994C12.3276 6.66795 12.2005 9.3848 13.0156 11.8899C13.3478 12.8924 14.4767 15.0724 14.4767 15.0724L8.41508 18.0449C8.41508 18.0449 7.04642 19.0024 6.62183 19.6724ZM44.345 19.5224C44.892 19.7824 45.0418 20.1924 44.9994 20.7674V28.1074C45.0167 28.4953 44.8894 28.8758 44.6422 29.1749C44.525 29.3131 44.378 29.4229 44.2124 29.4961C44.0467 29.5693 43.8666 29.6039 43.6856 29.5974H38.8953V21.9199C38.9013 21.1225 38.6729 20.3409 38.2385 19.6724C37.8125 19.0051 37.2003 18.4775 36.4777 18.1549L30.4136 15.0449C30.4136 15.0449 31.4925 12.8574 31.8172 11.8624C32.371 10.09 32.4731 8.20702 32.1144 6.38494C31.9664 5.68084 31.7463 4.99388 31.4576 4.33494C31.9096 4.03494 32.4017 3.78744 32.9186 3.60494C33.4456 3.41994 34.0026 3.32494 34.562 3.32244C35.3812 3.32494 36.1905 3.50744 36.9197 3.85494C37.649 4.19994 38.2984 4.67744 38.8304 5.26244C39.3873 5.88494 39.8244 6.59994 40.1116 7.36744C40.4313 8.18744 40.5937 9.05244 40.5912 9.92494C40.605 11.136 40.2954 12.3288 39.6945 13.3799C39.1527 14.3551 38.3724 15.1766 37.4267 15.7674L44.345 19.5224Z" fill="currentColor"/>
</svg>
